<svg width="3982" height="1993" viewBox="0 0 3982 1993" fill="none" xmlns="http://www.w3.org/2000/svg">
<g clip-path="url(#clip0)">
<rect width="3982" height="1993" fill="white"/>
<path d="M996 1722C1396.41 1722 1721 1397.41 1721 997C1721 596.594 1396.41 272 996 272C595.594 272 271 596.594 271 997C271 1397.41 595.594 1722 996 1722Z" stroke="#0D2C99" stroke-width="50" stroke-miterlimit="10"/>
<path fill-rule="evenodd" clip-rule="evenodd" d="M865.077 1167.66C865.351 1167.62 907.386 1162.28 912.308 1162.07C912.899 1162.04 913.675 1162.01 914.583 1161.97C918.694 1161.8 925.511 1161.52 930.141 1161.2C932.895 1161.01 936.182 1158.72 936.339 1155.96C936.447 1154.06 936.467 1151.75 936.488 1149.37C936.503 1147.64 936.519 1145.88 936.568 1144.21C936.568 1136.94 935.767 1125.06 935.325 1122.31C935.297 1122.14 935.216 1121.93 935.123 1121.78C934.842 1121.34 934.345 1121.2 933.822 1121.2H924.545C923.084 1121.2 923.043 1124.86 923.239 1127.04C923.25 1127.16 923.258 1127.28 923.261 1127.4C923.308 1129.23 923.686 1144.13 923.686 1146.15C923.686 1148.3 919.607 1150.02 914.455 1149.81C909.342 1149.59 864.923 1147.05 864.225 1147.01C864.203 1147.01 864.234 1147.01 864.212 1147.01C863.508 1146.98 771.647 1142.92 762.023 1142.49C752.362 1142.06 750.859 1127.86 751.074 1116.89C751.215 1109.69 752.836 1102.68 753.933 1098.71C754.489 1096.69 756.323 1095.35 758.41 1095.3L770.268 1095.03C771.974 1094.99 773.3 1093.53 773.179 1091.83C773.064 1090.21 771.687 1088.99 770.071 1089.05L741.706 1090.27C739.394 1090.37 737.501 1092.08 736.493 1094.16C735.533 1096.15 733.958 1098.18 731.537 1098.18C729.829 1098.18 728.739 1097.25 728.043 1096.07C726.608 1093.63 724.463 1091.17 721.632 1091.27L719.888 1091.33C717.174 1091.43 715.035 1093.68 715.076 1096.39C715.157 1101.66 715.296 1109.85 715.435 1113.88C715.435 1120.34 712.644 1126.36 708.565 1126.57C706.532 1126.66 705.191 1125.55 704.316 1124.21C702.895 1122.03 700.768 1119.99 698.168 1120.1L686.949 1120.57C684.271 1120.68 682.213 1122.92 681.465 1125.5C680.751 1127.95 679.303 1130.45 676.361 1130.45C673.389 1130.67 671.715 1128.23 670.789 1125.8C669.842 1123.32 667.622 1121.27 664.965 1121.37L602.63 1123.61C600.303 1123.69 598.634 1125.62 597.073 1127.43C596.881 1127.65 596.691 1127.87 596.501 1128.08C595.944 1128.71 595.18 1129.16 594.134 1129.16C592.641 1129.16 591.471 1128.33 590.61 1127.35C589.17 1125.71 587.286 1124.25 585.107 1124.31L559.757 1125C558.277 1125.05 556.855 1124.43 555.874 1123.32L554.39 1121.64C552.444 1119.44 549.012 1119.37 546.814 1121.32C542.858 1124.83 536.739 1129.51 532.303 1129.37C525.218 1129.37 513.624 1119.69 509.116 1109.58C506.894 1104.6 505.767 1100.35 505.195 1097.32C504.685 1094.61 502.463 1092.37 499.707 1092.36C474.118 1092.28 356.587 1091.94 345.307 1091.94C332.64 1091.73 331.352 1059.03 332.21 1061.18C332.749 1062.53 334.555 1067.35 335.827 1070.76C336.61 1072.86 338.689 1074.18 340.921 1074L514.56 1059.88C516.133 1059.75 517.55 1058.89 518.595 1057.7C521.037 1054.94 526.415 1050.17 534.879 1049.57C542.918 1048.99 548.461 1052.74 551.252 1055.29C552.641 1056.56 554.512 1057.34 556.37 1057.04L703.953 1033.19C705.505 1032.94 706.846 1031.97 707.745 1030.68C710.776 1026.34 719.093 1016.77 733.684 1016.44C742.762 1016.09 747.567 1018.65 750.054 1021.03C751.933 1022.84 754.648 1024.47 757.211 1024.01C911.09 996.754 925.505 980.607 926.787 978.41C926.887 978.238 926.916 978.062 926.936 977.864C927.195 975.316 929.054 956.035 929.054 927.817C929.054 815.317 976.5 751 995.608 751C995.68 751 995.752 751.007 995.823 751.02C995.894 751.007 995.965 751 996.037 751C1015.14 751 1062.59 815.317 1062.59 927.817C1062.59 956.035 1064.45 975.316 1064.71 977.864C1064.73 978.062 1064.76 978.238 1064.86 978.41C1066.14 980.607 1080.56 996.754 1234.43 1024.01C1237 1024.47 1239.71 1022.84 1241.59 1021.03C1244.08 1018.65 1248.88 1016.09 1257.96 1016.44C1272.55 1016.77 1280.87 1026.34 1283.9 1030.68C1284.8 1031.97 1286.14 1032.94 1287.69 1033.19L1435.28 1057.04C1437.13 1057.34 1439 1056.56 1440.39 1055.29C1443.18 1052.74 1448.73 1048.99 1456.77 1049.57C1465.23 1050.17 1470.61 1054.94 1473.05 1057.7C1474.09 1058.89 1475.51 1059.75 1477.09 1059.88L1650.73 1074C1652.96 1074.18 1655.04 1072.86 1655.82 1070.76C1657.09 1067.35 1658.9 1062.53 1659.44 1061.18C1660.29 1059.03 1659.01 1091.73 1646.34 1091.94C1635.06 1091.94 1517.53 1092.28 1491.94 1092.36C1489.18 1092.37 1486.96 1094.61 1486.45 1097.32C1485.88 1100.35 1484.75 1104.6 1482.53 1109.58C1478.02 1119.69 1466.43 1129.37 1459.34 1129.37C1454.91 1129.51 1448.79 1124.83 1444.83 1121.32C1442.63 1119.37 1439.2 1119.44 1437.26 1121.64L1435.77 1123.32C1434.79 1124.43 1433.37 1125.05 1431.89 1125L1406.54 1124.31C1404.36 1124.25 1402.47 1125.71 1401.03 1127.35C1400.17 1128.33 1399 1129.16 1397.51 1129.16C1396.47 1129.16 1395.7 1128.71 1395.14 1128.08C1394.95 1127.87 1394.76 1127.65 1394.57 1127.43C1393.01 1125.62 1391.34 1123.69 1389.02 1123.61L1326.68 1121.37C1324.02 1121.27 1321.8 1123.32 1320.86 1125.8C1319.93 1128.23 1318.26 1130.67 1315.28 1130.45C1312.34 1130.45 1310.89 1127.95 1310.18 1125.5C1309.43 1122.92 1307.37 1120.68 1304.7 1120.57L1293.48 1120.1C1290.88 1119.99 1288.75 1122.03 1287.33 1124.21C1286.45 1125.55 1285.11 1126.66 1283.08 1126.57C1279 1126.36 1276.21 1120.34 1276.21 1113.88C1276.35 1109.85 1276.49 1101.66 1276.57 1096.39C1276.61 1093.68 1274.47 1091.43 1271.76 1091.33L1270.01 1091.27C1267.18 1091.17 1265.04 1093.63 1263.6 1096.07C1262.91 1097.25 1261.82 1098.18 1260.11 1098.18C1257.69 1098.18 1256.11 1096.15 1255.15 1094.16C1254.14 1092.08 1252.25 1090.37 1249.94 1090.27L1221.57 1089.05C1219.96 1088.99 1218.58 1090.21 1218.47 1091.83C1218.34 1093.53 1219.67 1094.99 1221.38 1095.03L1233.23 1095.3C1235.32 1095.35 1237.16 1096.69 1237.71 1098.71C1238.81 1102.68 1240.43 1109.69 1240.57 1116.89C1240.79 1127.86 1239.28 1142.06 1229.62 1142.49C1220 1142.92 1128.14 1146.98 1127.43 1147.01C1127.41 1147.01 1127.44 1147.01 1127.42 1147.01C1126.72 1147.05 1082.3 1149.59 1077.19 1149.81C1072.04 1150.02 1067.96 1148.3 1067.96 1146.15C1067.96 1144.13 1068.34 1129.23 1068.38 1127.4C1068.39 1127.28 1068.39 1127.16 1068.41 1127.04C1068.6 1124.86 1068.56 1121.2 1067.1 1121.2H1057.82C1057.3 1121.2 1056.8 1121.34 1056.52 1121.78C1056.43 1121.93 1056.35 1122.14 1056.32 1122.31C1055.88 1125.06 1055.08 1136.94 1055.08 1144.21C1055.13 1145.88 1055.14 1147.64 1055.16 1149.37C1055.18 1151.75 1055.2 1154.06 1055.31 1155.96C1055.46 1158.72 1058.75 1161.01 1061.5 1161.2C1066.32 1161.54 1073.51 1161.83 1077.6 1162C1078.27 1162.02 1078.86 1162.05 1079.34 1162.07C1084.26 1162.28 1126.29 1167.62 1126.57 1167.66L1126.57 1167.66L1126.6 1167.66C1128.42 1167.89 1216.55 1178.63 1218.89 1179.06C1221.25 1179.49 1221.03 1183.58 1218.89 1183.58C1218.53 1183.58 1216.54 1183.7 1213.29 1183.9C1196.75 1184.91 1147.59 1187.92 1115.84 1187.02C1082.74 1185.9 1041.91 1184.46 1031.57 1184.09C1030 1184.04 1028.53 1184.71 1027.5 1185.9C1022.9 1191.25 1009.26 1206.22 998.907 1208.8C999.497 1209.04 1000.14 1209.17 1000.82 1209.17H996.037H995.608H990.82C991.5 1209.17 992.148 1209.04 992.738 1208.8C982.381 1206.22 968.745 1191.25 964.142 1185.9C963.117 1184.71 961.647 1184.04 960.078 1184.09C949.739 1184.46 908.909 1185.9 875.81 1187.02C844.051 1187.92 794.898 1184.91 778.354 1183.9C775.102 1183.7 773.11 1183.58 772.758 1183.58C770.611 1183.58 770.396 1179.49 772.758 1179.06C775.116 1178.63 864.799 1167.69 865.075 1167.66L865.077 1167.66ZM995.823 1204.44C995.831 1204.29 995.831 1204.13 995.825 1203.98C995.824 1203.96 995.823 1203.94 995.823 1203.91C995.822 1203.94 995.821 1203.96 995.82 1203.98C995.814 1204.13 995.815 1204.29 995.823 1204.44Z" fill="#0D2C99"/>
<rect x="1991" y="-519.246" width="3373" height="2539.49" fill="black"/>
<path d="M2987 1705C3387.41 1705 3712 1380.41 3712 980C3712 579.594 3387.41 255 2987 255C2586.59 255 2262 579.594 2262 980C2262 1380.41 2586.59 1705 2987 1705Z" stroke="white" stroke-width="50" stroke-miterlimit="10"/>
<path fill-rule="evenodd" clip-rule="evenodd" d="M2856.08 1150.66C2856.35 1150.62 2898.39 1145.28 2903.31 1145.07C2903.9 1145.04 2904.67 1145.01 2905.58 1144.97C2909.69 1144.8 2916.51 1144.52 2921.14 1144.2C2923.9 1144.01 2927.18 1141.72 2927.34 1138.96C2927.45 1137.06 2927.47 1134.75 2927.49 1132.37C2927.5 1130.64 2927.52 1128.88 2927.57 1127.21C2927.57 1119.94 2926.77 1108.06 2926.33 1105.31C2926.3 1105.14 2926.22 1104.93 2926.12 1104.78C2925.84 1104.34 2925.34 1104.2 2924.82 1104.2H2915.54C2914.08 1104.2 2914.04 1107.86 2914.24 1110.04C2914.25 1110.16 2914.26 1110.28 2914.26 1110.4C2914.31 1112.23 2914.69 1127.13 2914.69 1129.15C2914.69 1131.3 2910.61 1133.02 2905.45 1132.81C2900.34 1132.59 2855.92 1130.05 2855.22 1130.01C2855.2 1130.01 2855.23 1130.01 2855.21 1130.01C2854.51 1129.98 2762.65 1125.92 2753.02 1125.49C2743.36 1125.06 2741.86 1110.86 2742.07 1099.89C2742.21 1092.69 2743.84 1085.68 2744.93 1081.71C2745.49 1079.69 2747.32 1078.35 2749.41 1078.3L2761.27 1078.03C2762.97 1077.99 2764.3 1076.53 2764.18 1074.83C2764.06 1073.21 2762.69 1071.99 2761.07 1072.05L2732.71 1073.27C2730.39 1073.37 2728.5 1075.08 2727.49 1077.16C2726.53 1079.15 2724.96 1081.18 2722.54 1081.18C2720.83 1081.18 2719.74 1080.25 2719.04 1079.07C2717.61 1076.63 2715.46 1074.17 2712.63 1074.27L2710.89 1074.33C2708.17 1074.43 2706.03 1076.68 2706.08 1079.39C2706.16 1084.66 2706.3 1092.85 2706.44 1096.88C2706.44 1103.34 2703.64 1109.36 2699.56 1109.57C2697.53 1109.66 2696.19 1108.55 2695.32 1107.21C2693.9 1105.03 2691.77 1102.99 2689.17 1103.1L2677.95 1103.57C2675.27 1103.68 2673.21 1105.92 2672.47 1108.5C2671.75 1110.95 2670.3 1113.45 2667.36 1113.45C2664.39 1113.67 2662.71 1111.23 2661.79 1108.8C2660.84 1106.32 2658.62 1104.27 2655.96 1104.37L2593.63 1106.61C2591.3 1106.69 2589.63 1108.62 2588.07 1110.43C2587.88 1110.65 2587.69 1110.87 2587.5 1111.08C2586.94 1111.71 2586.18 1112.16 2585.13 1112.16C2583.64 1112.16 2582.47 1111.33 2581.61 1110.35C2580.17 1108.71 2578.29 1107.25 2576.11 1107.31L2550.76 1108C2549.28 1108.05 2547.85 1107.43 2546.87 1106.32L2545.39 1104.64C2543.44 1102.44 2540.01 1102.37 2537.81 1104.32C2533.86 1107.83 2527.74 1112.51 2523.3 1112.37C2516.22 1112.37 2504.62 1102.69 2500.12 1092.58C2497.89 1087.6 2496.77 1083.35 2496.2 1080.32C2495.68 1077.61 2493.46 1075.37 2490.71 1075.36C2465.12 1075.28 2347.59 1074.94 2336.31 1074.94C2323.64 1074.73 2322.35 1042.03 2323.21 1044.18C2323.75 1045.53 2325.56 1050.35 2326.83 1053.76C2327.61 1055.86 2329.69 1057.18 2331.92 1057L2505.56 1042.88C2507.13 1042.75 2508.55 1041.89 2509.59 1040.7C2512.04 1037.94 2517.42 1033.17 2525.88 1032.57C2533.92 1031.99 2539.46 1035.74 2542.25 1038.29C2543.64 1039.56 2545.51 1040.34 2547.37 1040.04L2694.95 1016.19C2696.5 1015.94 2697.85 1014.97 2698.75 1013.68C2701.78 1009.34 2710.09 999.772 2724.68 999.44C2733.76 999.086 2738.57 1001.65 2741.05 1004.03C2742.93 1005.84 2745.65 1007.47 2748.21 1007.01C2902.09 979.754 2916.51 963.607 2917.79 961.41C2917.89 961.238 2917.92 961.062 2917.94 960.864C2918.2 958.316 2920.05 939.035 2920.05 910.817C2920.05 798.317 2967.5 734 2986.61 734C2986.68 734 2986.75 734.007 2986.82 734.02C2986.89 734.007 2986.97 734 2987.04 734C3006.14 734 3053.59 798.317 3053.59 910.817C3053.59 939.035 3055.45 958.316 3055.71 960.864C3055.73 961.062 3055.76 961.238 3055.86 961.41C3057.14 963.607 3071.56 979.754 3225.43 1007.01C3228 1007.47 3230.71 1005.84 3232.59 1004.03C3235.08 1001.65 3239.88 999.086 3248.96 999.44C3263.55 999.772 3271.87 1009.34 3274.9 1013.68C3275.8 1014.97 3277.14 1015.94 3278.69 1016.19L3426.28 1040.04C3428.13 1040.34 3430 1039.56 3431.39 1038.29C3434.18 1035.74 3439.73 1031.99 3447.77 1032.57C3456.23 1033.17 3461.61 1037.94 3464.05 1040.7C3465.09 1041.89 3466.51 1042.75 3468.09 1042.88L3641.73 1057C3643.96 1057.18 3646.04 1055.86 3646.82 1053.76C3648.09 1050.35 3649.9 1045.53 3650.44 1044.18C3651.29 1042.03 3650.01 1074.73 3637.34 1074.94C3626.06 1074.94 3508.53 1075.28 3482.94 1075.36C3480.18 1075.37 3477.96 1077.61 3477.45 1080.32C3476.88 1083.35 3475.75 1087.6 3473.53 1092.58C3469.02 1102.69 3457.43 1112.37 3450.34 1112.37C3445.91 1112.51 3439.79 1107.83 3435.83 1104.32C3433.63 1102.37 3430.2 1102.44 3428.26 1104.64L3426.77 1106.32C3425.79 1107.43 3424.37 1108.05 3422.89 1108L3397.54 1107.31C3395.36 1107.25 3393.47 1108.71 3392.03 1110.35C3391.17 1111.33 3390 1112.16 3388.51 1112.16C3387.47 1112.16 3386.7 1111.71 3386.14 1111.08C3385.95 1110.87 3385.76 1110.65 3385.57 1110.43C3384.01 1108.62 3382.34 1106.69 3380.02 1106.61L3317.68 1104.37C3315.02 1104.27 3312.8 1106.32 3311.86 1108.8C3310.93 1111.23 3309.26 1113.67 3306.28 1113.45C3303.34 1113.45 3301.89 1110.95 3301.18 1108.5C3300.43 1105.92 3298.37 1103.68 3295.7 1103.57L3284.48 1103.1C3281.88 1102.99 3279.75 1105.03 3278.33 1107.21C3277.45 1108.55 3276.11 1109.66 3274.08 1109.57C3270 1109.36 3267.21 1103.34 3267.21 1096.88C3267.35 1092.85 3267.49 1084.66 3267.57 1079.39C3267.61 1076.68 3265.47 1074.43 3262.76 1074.33L3261.01 1074.27C3258.18 1074.17 3256.04 1076.63 3254.6 1079.07C3253.91 1080.25 3252.82 1081.18 3251.11 1081.18C3248.69 1081.18 3247.11 1079.15 3246.15 1077.16C3245.14 1075.08 3243.25 1073.37 3240.94 1073.27L3212.57 1072.05C3210.96 1071.99 3209.58 1073.21 3209.47 1074.83C3209.34 1076.53 3210.67 1077.99 3212.38 1078.03L3224.23 1078.3C3226.32 1078.35 3228.16 1079.69 3228.71 1081.71C3229.81 1085.68 3231.43 1092.69 3231.57 1099.89C3231.79 1110.86 3230.28 1125.06 3220.62 1125.49C3211 1125.92 3119.14 1129.98 3118.43 1130.01C3118.41 1130.01 3118.44 1130.01 3118.42 1130.01C3117.72 1130.05 3073.3 1132.59 3068.19 1132.81C3063.04 1133.02 3058.96 1131.3 3058.96 1129.15C3058.96 1127.13 3059.34 1112.23 3059.38 1110.4C3059.39 1110.28 3059.39 1110.16 3059.41 1110.04C3059.6 1107.86 3059.56 1104.2 3058.1 1104.2H3048.82C3048.3 1104.2 3047.8 1104.34 3047.52 1104.78C3047.43 1104.93 3047.35 1105.14 3047.32 1105.31C3046.88 1108.06 3046.08 1119.94 3046.08 1127.21C3046.13 1128.88 3046.14 1130.64 3046.16 1132.37C3046.18 1134.75 3046.2 1137.06 3046.31 1138.96C3046.46 1141.72 3049.75 1144.01 3052.5 1144.2C3057.32 1144.54 3064.51 1144.83 3068.6 1145C3069.27 1145.02 3069.86 1145.05 3070.34 1145.07C3075.26 1145.28 3117.29 1150.62 3117.57 1150.66L3117.57 1150.66L3117.6 1150.66C3119.42 1150.89 3207.55 1161.63 3209.89 1162.06C3212.25 1162.49 3212.03 1166.58 3209.89 1166.58C3209.53 1166.58 3207.54 1166.7 3204.29 1166.9C3187.75 1167.91 3138.59 1170.92 3106.84 1170.02C3073.74 1168.9 3032.91 1167.46 3022.57 1167.09C3021 1167.04 3019.53 1167.71 3018.5 1168.9C3013.9 1174.25 3000.26 1189.22 2989.91 1191.8C2990.5 1192.04 2991.14 1192.17 2991.82 1192.17H2987.04H2986.61H2981.82C2982.5 1192.17 2983.15 1192.04 2983.74 1191.8C2973.38 1189.22 2959.75 1174.25 2955.14 1168.9C2954.12 1167.71 2952.65 1167.04 2951.08 1167.09C2940.74 1167.46 2899.91 1168.9 2866.81 1170.02C2835.05 1170.92 2785.9 1167.91 2769.35 1166.9C2766.1 1166.7 2764.11 1166.58 2763.76 1166.58C2761.61 1166.58 2761.4 1162.49 2763.76 1162.06C2766.12 1161.63 2855.8 1150.69 2856.07 1150.66L2856.08 1150.66ZM2986.82 1187.44C2986.83 1187.29 2986.83 1187.13 2986.83 1186.98C2986.82 1186.96 2986.82 1186.94 2986.82 1186.91C2986.82 1186.94 2986.82 1186.96 2986.82 1186.98C2986.81 1187.13 2986.81 1187.29 2986.82 1187.44Z" fill="white"/>
</g>
<defs>
<clipPath id="clip0">
<rect width="3982" height="1993" fill="white"/>
</clipPath>
</defs>
</svg>
